<svg id="Layer_1" data-name="Layer 1" xmlns="http://www.w3.org/2000/svg" viewBox="0 0 540 124.03"><defs><style>.cls-1{fill:#fff}.cls-2{fill:none}</style></defs><title>logo_reebok</title><path class="cls-1" d="M440.95 62v18.79c0 22-15 34.35-36.12 35h-4.56c-21.06-.8-36.12-13.13-36.12-35V62c0-22.07 15.19-34.4 36.33-35h4.15c21.27.65 36.32 13.11 36.32 35zm-39.87-16.73c-8.33.5-16.27 4.79-16.27 16.73v18.93c0 11.55 7.91 16.11 16.27 16.66H404c8.21-.5 16.27-4.94 16.27-16.66V62c0-11.86-8-16.23-16.33-16.73a22.43 22.43 0 0 0-2.86 0zm71.62 18.9L505.43 27h25.87l-37.49 42.54 39.47 43.73h-26.16L472.7 75.19v38.09h-20.78V6h20.78zM178.41 77.24V62c0-22-15.4-34.3-36.55-35h-3.95c-21.29.71-36.33 13-36.33 35v18.8c0 21 15.64 34.08 35.86 35 2.15.1 3.26 0 4.75 0 25.28 0 34.67-12.87 35.86-27.47H159c-.57 2.71-1.42 9.84-17.44 9.84a33.48 33.48 0 0 1-9.43-1.58c-11.85-3.95-9.95-18.55-9.95-19.36zm-56.26-16.6c0-11.37 7.52-15.76 16.44-16.18h2.76c9.06.42 16.65 5.17 16.65 16.16v1.49h-35.85v-1.47zm143.43 16.6V62c0-22-15.4-34.3-36.55-35h-3.95c-21.29.71-36.33 13-36.33 35v18.8c0 21 15.64 34.08 35.86 35 2.15.1 3.26 0 4.75 0 25.28 0 34.67-12.87 35.86-27.47h-19c-.57 2.71-1.42 9.84-17.44 9.84a33.48 33.48 0 0 1-9.43-1.58c-11.85-3.95-9.95-18.55-9.95-19.36zm-56.26-16.6c0-11.37 7.52-15.76 16.44-16.18h2.76c9.06.42 16.65 5.17 16.65 16.16v1.49h-35.85v-1.47zm108-33.46c-9.63 0-16.2 2.62-19.89 5.73V6h-20.69v107.27h3.63s9.18-5.18 9.67-5.36c1.34 1.45 10.38 8.1 22.91 8.1h4.57c21-.5 36.12-13.51 36.12-35V62.25c.01-21.07-15.25-35.07-36.32-35.07zm15.59 53.91c0 11.72-8.05 16.16-16.27 16.66h-2.92c-8.36-.55-16.27-5.11-16.27-16.66V62.16c0-11.94 7.94-16.23 16.26-16.73a22.31 22.31 0 0 1 2.87 0c8.28.5 16.33 4.87 16.33 16.73zM99 113.27L59.25 69c2 .13 4 .21 6 .21 13.64 0 30.6-8.66 30.6-30.43C95.81 12.5 74 6 54.77 6H8.38v107.27h21V65.36l43.09 47.91zM29.34 24.36h25.19C66.21 24.36 76.45 28 76.45 39S70 54.12 54.53 54.12H29.34z"/><path class="cls-2" d="M0 7.03h540v123H0z"/></svg>