<svg id="Layer_1" data-name="Layer 1" xmlns="http://www.w3.org/2000/svg" viewBox="0 0 540 124.03"><defs><style>.cls-1{fill:#fff;}.cls-2{fill:none;}</style></defs><title>logo_reebok</title><path class="cls-1" d="M440.95,62V80.79c0,22-15,34.35-36.12,35-1.18,0-3.28,0-4.56,0-21.06-.8-36.12-13.13-36.12-35V62c0-22.07,15.19-34.4,36.33-35,1.08,0,3.15,0,4.15,0C425.9,27.65,440.95,40.11,440.95,62ZM401.08,45.27c-8.33.5-16.27,4.79-16.27,16.73V80.93c0,11.55,7.91,16.11,16.27,16.66.41,0,2.53,0,2.92,0,8.21-.5,16.27-4.94,16.27-16.66V62c0-11.86-8-16.23-16.33-16.73A22.43,22.43,0,0,0,401.08,45.27Z"/><path class="cls-1" d="M472.7,64.17,505.43,27h25.87L493.81,69.54l39.47,43.73H507.12L472.7,75.19v38.09H451.92V6H472.7Z"/><path class="cls-1" d="M178.41,77.24V62c0-22-15.4-34.3-36.55-35h-3.95c-21.29.71-36.33,13-36.33,35V80.8c0,21,15.64,34.08,35.86,35,2.15.1,3.26,0,4.75,0,25.28,0,34.67-12.87,35.86-27.47H159c-.57,2.71-1.42,9.84-17.44,9.84a33.48,33.48,0,0,1-9.43-1.58c-11.85-3.95-9.95-18.55-9.95-19.36Zm-56.26-16.6c0-11.37,7.52-15.76,16.44-16.18.92,0,1.94,0,2.76,0,9.06.42,16.65,5.17,16.65,16.16,0,.52,0,.93,0,1.49H122.15C122.15,61.83,122.15,61.13,122.15,60.64Z"/><path class="cls-1" d="M265.58,77.24V62c0-22-15.4-34.3-36.55-35h-3.95c-21.29.71-36.33,13-36.33,35V80.8c0,21,15.64,34.08,35.86,35,2.15.1,3.26,0,4.75,0,25.28,0,34.67-12.87,35.86-27.47h-19c-.57,2.71-1.42,9.84-17.44,9.84a33.48,33.48,0,0,1-9.43-1.58c-11.85-3.95-9.95-18.55-9.95-19.36Zm-56.26-16.6c0-11.37,7.52-15.76,16.44-16.18.92,0,1.94,0,2.76,0,9.06.42,16.65,5.17,16.65,16.16,0,.52,0,.93,0,1.49H209.32C209.32,61.83,209.32,61.13,209.32,60.64Z"/><path class="cls-1" d="M317.32,27.18c-9.63,0-16.2,2.62-19.89,5.73V6H276.74V113.27h3.63s9.18-5.18,9.67-5.36c1.34,1.45,10.38,8.1,22.91,8.1,1.6,0,3,0,4.57,0,21-.5,36.12-13.51,36.12-35V62.25C353.65,41.18,338.39,27.18,317.32,27.18Zm15.59,53.91c0,11.72-8.05,16.16-16.27,16.66-.39,0-2.51,0-2.92,0-8.36-.55-16.27-5.11-16.27-16.66V62.16c0-11.94,7.94-16.23,16.26-16.73a22.31,22.31,0,0,1,2.87,0c8.28.5,16.33,4.87,16.33,16.73Z"/><path class="cls-1" d="M99,113.27,59.25,69c2,.13,4,.21,6,.21,13.64,0,30.6-8.66,30.6-30.43C95.81,12.5,74,6,54.77,6H8.38V113.27h21l0-47.91,43.09,47.91ZM29.34,24.36H54.53C66.21,24.36,76.45,28,76.45,39S70,54.12,54.53,54.12H29.34Z"/><rect class="cls-2" y="7.03" width="540" height="123"/></svg>