<?xml version="1.0" standalone="no"?>
<!DOCTYPE svg PUBLIC "-//W3C//DTD SVG 20010904//EN"
 "http://www.w3.org/TR/2001/REC-SVG-20010904/DTD/svg10.dtd">
<svg version="1.0" xmlns="http://www.w3.org/2000/svg"
 width="700.000000pt" height="700.000000pt" viewBox="0 0 700.000000 700.000000"
 preserveAspectRatio="xMidYMid meet">
<metadata>
Created by potrace 1.11, written by Peter Selinger 2001-2013
</metadata>
<g transform="translate(0.000000,700.000000) scale(0.100000,-0.100000)"
fill="#000000" stroke="none">
<path d="M23 6270 c-17 -5 -18 -106 -17 -2655 1 -1457 2 -2655 3 -2661 1 -8
113 -11 401 -11 l400 0 2 1656 3 1656 52 -225 c29 -124 89 -380 133 -570 44
-190 89 -381 99 -425 24 -104 215 -924 251 -1080 29 -124 149 -639 204 -875
l31 -135 325 0 325 0 77 370 c43 204 91 435 107 515 17 80 71 339 120 576 50
237 92 442 95 455 2 13 27 134 56 269 92 441 109 522 156 750 92 450 82 610
83 -1277 l1 -1661 402 1 403 2 0 2658 c0 2354 -2 2660 -15 2666 -11 5 -966 7
-1076 2 -19 -1 -24 -12 -39 -98 -10 -54 -19 -107 -21 -118 -2 -11 -24 -128
-49 -260 -25 -132 -47 -253 -50 -270 -12 -64 -107 -569 -140 -740 -19 -99 -36
-191 -39 -205 -8 -45 -75 -402 -95 -510 -47 -250 -92 -490 -130 -690 -22 -118
-60 -323 -85 -455 -25 -132 -48 -253 -50 -270 -27 -154 -45 -218 -47 -169 0
10 -2 26 -4 34 -3 17 -54 273 -61 310 -46 239 -76 392 -88 452 -8 40 -36 181
-62 313 -25 132 -47 247 -49 255 -23 118 -79 401 -140 715 -41 215 -84 433
-95 485 -11 52 -49 248 -85 435 -37 187 -84 430 -106 540 -21 109 -39 207 -39
216 0 10 -5 21 -12 25 -13 8 -1106 12 -1135 4z"/>
<path d="M4450 3607 l0 -2664 403 1 402 1 0 997 c1 548 3 999 6 1002 3 3 135
6 295 6 321 2 402 10 554 60 388 128 711 468 819 862 43 160 48 245 46 803 -3
520 -6 563 -56 744 -52 185 -162 374 -293 503 -149 147 -301 235 -502 293
-175 50 -236 53 -981 54 l-693 2 0 -2664z m1413 1824 c158 -37 279 -159 317
-321 20 -80 20 -944 1 -1015 -43 -159 -166 -285 -321 -331 -79 -23 -588 -27
-599 -4 -9 20 -7 1662 2 1676 9 16 533 11 600 -5z"/>
</g>
</svg>
